<svg width="200" height="200" viewBox="0 0 200 200" xmlns="http://www.w3.org/2000/svg">
  <!-- MongoDB Green -->
  <g transform="translate(100, 100)">
    <!-- Left leaf -->
    <path d="M -8,-70 Q -25,-50 -28,-20 Q -28,10 -20,40 Q -15,55 -8,65 L -8,-70 Z" 
          fill="#589636"/>
    <!-- Right leaf -->
    <path d="M 8,-70 Q 25,-50 28,-20 Q 28,10 20,40 Q 15,55 8,65 L 8,-70 Z" 
          fill="#4DB33D"/>
    <!-- Center stem -->
    <path d="M -3,65 Q -3,75 -5,85 Q -3,88 0,88 Q 3,88 5,85 Q 3,75 3,65 Z" 
          fill="#3F9A2F"/>
    <!-- Highlight on right leaf -->
    <path d="M 5,-65 Q 15,-45 18,-20 Q 18,5 13,35 Q 10,48 5,60" 
          fill="none" stroke="#A6D388" stroke-width="2" opacity="0.7"/>
  </g>
</svg>
